M48
;GenerationSoftware,Autodesk,EAGLE,9.6.2*%
;CreationDate,2020-12-17T03:32:16Z*%
FMAT,2
ICI,OFF
METRIC,TZ,000.000
T7C0.305
T6C0.889
T5C1.016
T4C1.200
T3C1.400
T2C2.000
T1C3.175
%
G90
M71
T1
X97790Y59690
X3810Y3810
X97790Y3810
X3810Y59690
T2
X10541Y36830
X54229Y36830
X10541Y59690
X54229Y59690
T3
X28040Y35600
X28040Y40600
X40540Y35600
X40540Y40600
T4
X43300Y16510
X10280Y16510
X25280Y16510
X58300Y16510
X76320Y16510
X91320Y16510
X98990Y22930
X98990Y20830
X98990Y18730
X98990Y16630
X98990Y14530
X98990Y12430
T5
X28829Y59690
X31369Y59690
X33909Y59690
X36449Y59690
T6
X69020Y28930
X66480Y26390
X66480Y28930
X63940Y26390
X63940Y28930
X61400Y26390
X61400Y28930
X58860Y26390
X58860Y28930
X56320Y26390
X56320Y28930
X53780Y26390
X53780Y28930
X51240Y26390
X51240Y28930
X94420Y51790
X94420Y54330
X91880Y51790
X91880Y54330
X89340Y51790
X89340Y54330
X86800Y51790
X86800Y54330
X84260Y51790
X84260Y54330
X71560Y28930
X81720Y54330
X79180Y51790
X79180Y54330
X76640Y51790
X76640Y54330
X74100Y51790
X74100Y54330
X71560Y51790
X71560Y54330
X69020Y51790
X69020Y54330
X66480Y51790
X66480Y54330
X63940Y51790
X63940Y54330
X61400Y51790
X61400Y54330
X58860Y51790
X58860Y54330
X56320Y51790
X56320Y54330
X53780Y51790
X53780Y54330
X51240Y51790
X51240Y54330
X3810Y15240
X3810Y12700
X86800Y26390
X94420Y26390
X94420Y28930
X91880Y26390
X91880Y28930
X89340Y26390
X89340Y28930
X86800Y28930
X81720Y51790
X84260Y26390
X84260Y28930
X81720Y26390
X81720Y28930
X79180Y26390
X79180Y28930
X76640Y26390
X76640Y28930
X74100Y26390
X74100Y28930
X71560Y26390
X69020Y26390
X3810Y17780
T7
X32258Y46228
X20320Y62738
X18034Y62738
M30